<svg xmlns="http://www.w3.org/2000/svg"><symbol id="mecha-stilts" viewBox="0 0 250 250"><defs><style>.cls-1{fill:#fff}</style></defs><path d="M125-1l108.25 62.5v125L125 249 16.75 186.5v-125L125-1z"/><path d="M62.18 170.19a2.06 2.06 0 1 1 0-4.11h10.26v-12.93H62.18a2 2 0 0 1-2.06-2.06v-40.44a1.94 1.94 0 0 1 2.06-2.05h13.55c1-29.15 22.78-45.17 49.27-45.17s48.24 16 49.27 45.17h13.55a1.94 1.94 0 0 1 2.05 2.05v40.44a1.94 1.94 0 0 1-2.05 2.06h-10.27v12.93h10.27a2.06 2.06 0 0 1 0 4.11zm2.05-57.49V149h121.53v-36.3zm12.32 40.45v12.93h13.14v-12.93zm3.28-44.55h90.33C169.13 82.12 149 67.54 125 67.54S80.86 82.12 79.83 108.6zm14 44.55v12.93h20.53v-12.93zm24.64 0v12.93h13.14v-12.93zm55.63-14H124a2.06 2.06 0 0 1 0-4.11h50.09a2.06 2.06 0 0 1 0 4.11zm-38.39 14v12.93h20.49v-12.93zm24.64 0v12.93h13.13v-12.93z" class="cls-1"/></symbol><symbol id="space-bubbles" viewBox="0 0 250 250"><defs><style>.cls-1{fill:#fff}</style></defs><path d="M123 2l107.39 62v124L123 250 15.61 188V64L123 2z"/><path d="M62.31 176.3l-4.69-6.72a2.16 2.16 0 0 1 .21-2.45l16.9-19.95h-8.35a1.92 1.92 0 0 1-2-2v-14.7a1.92 1.92 0 0 1 2-2h11.81A57.14 57.14 0 0 1 76 113a48.17 48.17 0 0 1 96.33 0 50 50 0 0 1-2.33 15.44h11.81a1.93 1.93 0 0 1 2 2v14.66a1.93 1.93 0 0 1-2 2h-10.34l16.7 19.95a2.16 2.16 0 0 1 0 2.45l-4.69 6.72a2.16 2.16 0 0 1-2.65.61l-9.77-5.09H74.73L65 176.91a2.23 2.23 0 0 1-2.69-.61zm31-29.12H79.82L61.9 168.36l2.85 4.07 34.42-18.13zm-24.89-14.67v10.59h111.4v-10.59zm14-4.07h83.29a49.22 49.22 0 0 0 2.5-15.44A44.09 44.09 0 0 0 80 113c0 5.26.43 10.76 2.47 15.44zM102 157.56l-19.33 10.18h27.7zm-3.46-10.38l17.1 20.56h14.67l17.1-20.56zM144 157.56l-8.35 10.18h27.7zm22.2-10.38h-13.47l-6.11 7.12 34.62 18.13 2.85-3.87z" class="cls-1"/></symbol><symbol id="super-domes" viewBox="0 0 250 250"><defs><style>.cls-1{fill:#fff}</style></defs><path d="M124.78.41L231.99 62.3v123.8L124.78 248 17.57 186.1V62.3L124.78.41z"/><path d="M66 169.94a1.92 1.92 0 0 1-2-2v-24.6H37.15a2 2 0 1 1 0-4.07H52.4V126a1.92 1.92 0 0 1 2-2h7.93a64.45 64.45 0 0 1 62.21-49.41c.21-.2.41-.2.82 0 30.09.2 55.1 21.35 61.81 49.41h7.93a1.92 1.92 0 0 1 2 2v13.21h15.25a2 2 0 0 1 0 4.07h-26.78v24.6a1.92 1.92 0 0 1-2 2zm-9.56-41.88v11.18h136.65v-11.18zm64.25-49.2c-26 1.62-47.78 20.53-54.08 45.14h21.77zm-52.64 64.45v22.57h54.69v-22.57zm54.69-60.39L93.46 124h29.28zm4.07-4.26V124h56.12a60.43 60.43 0 0 0-56.12-45.34zm0 64.65v22.57H136v-22.57zm13.22 0v22.57h41.47v-22.57z" class="cls-1"/></symbol></svg>