<svg xmlns="http://www.w3.org/2000/svg"><symbol id="space-bubbles" viewBox="0 0 250 250"><path d="M123 2l107.4 62v124L123 250 15.6 188V64L123 2z"/><path fill="#ff5e3a" d="M62.3 176.3l-4.7-6.7a2.3 2.3 0 0 1 .2-2.5l16.9-19.9h-8.3a2 2 0 0 1-2.1-2.1v-14.6a2.1 2.1 0 0 1 2.1-2.1h11.8A56.7 56.7 0 0 1 76 113a48.2 48.2 0 0 1 96.3 0 47.2 47.2 0 0 1-2.3 15.4h11.9a2 2 0 0 1 2 2.1v14.6a1.9 1.9 0 0 1-2 2.1h-10.4l16.7 19.9a2.3 2.3 0 0 1 0 2.5l-4.7 6.7a2.2 2.2 0 0 1-2.7.6l-9.7-5.1H74.7l-9.7 5.1a2.3 2.3 0 0 1-2.7-.6zm31-29.1H79.8l-17.9 21.2 2.9 4 34.4-18.1zm-24.9-14.7v10.6h111.4v-10.6zm14.1-4.1h83.3a49.1 49.1 0 0 0 2.4-15.4 44.1 44.1 0 0 0-88.2 0c0 5.3.4 10.8 2.5 15.4zm19.5 29.2l-19.3 10.1h27.7zm-3.4-10.4l17.1 20.5h14.6l17.1-20.5zm45.4 10.4l-8.4 10.1h27.7zm22.2-10.4h-13.5l-6.1 7.1 34.6 18.1 2.9-3.8z"/></symbol><symbol id="mecha-stilts" viewBox="0 0 250 250"><path d="M125-1l108.3 62.5v125L125 249 16.7 186.5v-125L125-1z"/><path fill="#ff5e3a" d="M62.2 170.2a2.1 2.1 0 1 1 0-4.1h10.2v-13H62.2a1.9 1.9 0 0 1-2.1-2v-40.4a1.9 1.9 0 0 1 2.1-2.1h13.5c1.1-29.2 22.8-45.2 49.3-45.2s48.2 16 49.3 45.2h13.5a2 2 0 0 1 2.1 2.1v40.4a2 2 0 0 1-2.1 2h-10.2v13h10.2a2.1 2.1 0 1 1 0 4.1zm2-57.5V149h121.6v-36.3zm12.3 40.4v13h13.2v-13zm3.3-44.5h90.4C169.1 82.1 149 67.5 125 67.5s-44.1 14.6-45.2 41.1zm14 44.5v13h20.5v-13zm24.6 0v13h13.2v-13zm55.7-13.9H124a2.1 2.1 0 1 1 0-4.1h50.1a2.1 2.1 0 0 1 0 4.1zm-38.4 13.9v13h20.5v-13zm24.6 0v13h13.1v-13z"/></symbol><symbol id="super-domes" viewBox="0 0 250 250"><path d="M124.8.4L232 62.3v123.8L124.8 248 17.6 186.1V62.3L124.8.4z"/><path fill="#ff5e3a" d="M66 169.9a1.9 1.9 0 0 1-2-2v-24.6H37.1a2.2 2.2 0 0 1-2-2 2.2 2.2 0 0 1 2-2.1h15.3V126a1.9 1.9 0 0 1 2-2h8a64.4 64.4 0 0 1 62.2-49.4c.2-.2.4-.2.8 0a64.1 64.1 0 0 1 61.8 49.4h7.9a2 2 0 0 1 2.1 2v13.2h15.2a2.2 2.2 0 0 1 2 2.1 2.2 2.2 0 0 1-2 2h-26.8v24.6a1.9 1.9 0 0 1-2.1 2zm-9.5-41.8v11.1h136.6v-11.1zm64.2-49.2c-26 1.6-47.8 20.5-54.1 45.1h21.8zm-52.6 64.4v22.6h54.6v-22.6zm54.6-60.4L93.5 124h29.2zm4.1-4.2V124h56.1a60.3 60.3 0 0 0-56.1-45.3zm0 64.6v22.6h9.2v-22.6zm13.2 0v22.6h41.5v-22.6z"/></symbol></svg>
