<svg xmlns="http://www.w3.org/2000/svg" id="Layer_1" viewBox="0 0 250 250" width="250" height="250"><defs><style>.cls-1{fill:#fff}</style></defs><path d="M125-1l108.25 62.5v125L125 249 16.75 186.5v-125L125-1z"/><path d="M62.18 170.19a2.06 2.06 0 1 1 0-4.11h10.26v-12.93H62.18a2 2 0 0 1-2.06-2.06v-40.44a1.94 1.94 0 0 1 2.06-2.05h13.55c1-29.15 22.78-45.17 49.27-45.17s48.24 16 49.27 45.17h13.55a1.94 1.94 0 0 1 2.05 2.05v40.44a1.94 1.94 0 0 1-2.05 2.06h-10.27v12.93h10.27a2.06 2.06 0 0 1 0 4.11zm2.05-57.49V149h121.53v-36.3zm12.32 40.45v12.93h13.14v-12.93zm3.28-44.55h90.33C169.13 82.12 149 67.54 125 67.54S80.86 82.12 79.83 108.6zm14 44.55v12.93h20.53v-12.93zm24.64 0v12.93h13.14v-12.93zm55.63-14H124a2.06 2.06 0 0 1 0-4.11h50.09a2.06 2.06 0 0 1 0 4.11zm-38.39 14v12.93h20.49v-12.93zm24.64 0v12.93h13.13v-12.93z" class="cls-1"/></svg>