<svg xmlns="http://www.w3.org/2000/svg" id="Layer_1" viewBox="0 0 250 250" width="250" height="250"><defs><style>.cls-1{fill:#fff}</style></defs><path d="M123 2l107.39 62v124L123 250 15.61 188V64L123 2z"/><path d="M62.31 176.3l-4.69-6.72a2.16 2.16 0 0 1 .21-2.45l16.9-19.95h-8.35a1.92 1.92 0 0 1-2-2v-14.7a1.92 1.92 0 0 1 2-2h11.81A57.14 57.14 0 0 1 76 113a48.17 48.17 0 0 1 96.33 0 50 50 0 0 1-2.33 15.44h11.81a1.93 1.93 0 0 1 2 2v14.66a1.93 1.93 0 0 1-2 2h-10.34l16.7 19.95a2.16 2.16 0 0 1 0 2.45l-4.69 6.72a2.16 2.16 0 0 1-2.65.61l-9.77-5.09H74.73L65 176.91a2.23 2.23 0 0 1-2.69-.61zm31-29.12H79.82L61.9 168.36l2.85 4.07 34.42-18.13zm-24.89-14.67v10.59h111.4v-10.59zm14-4.07h83.29a49.22 49.22 0 0 0 2.5-15.44A44.09 44.09 0 0 0 80 113c0 5.26.43 10.76 2.47 15.44zM102 157.56l-19.33 10.18h27.7zm-3.46-10.38l17.1 20.56h14.67l17.1-20.56zM144 157.56l-8.35 10.18h27.7zm22.2-10.38h-13.47l-6.11 7.12 34.62 18.13 2.85-3.87z" class="cls-1"/></svg>