<svg xmlns="http://www.w3.org/2000/svg" id="Layer_1" viewBox="0 0 250 250" width="250" height="250"><defs><style>.cls-1{fill:#fff}</style></defs><path d="M124.78.41L231.99 62.3v123.8L124.78 248 17.57 186.1V62.3L124.78.41z"/><path d="M66 169.94a1.92 1.92 0 0 1-2-2v-24.6H37.15a2 2 0 1 1 0-4.07H52.4V126a1.92 1.92 0 0 1 2-2h7.93a64.45 64.45 0 0 1 62.21-49.41c.21-.2.41-.2.82 0 30.09.2 55.1 21.35 61.81 49.41h7.93a1.92 1.92 0 0 1 2 2v13.21h15.25a2 2 0 0 1 0 4.07h-26.78v24.6a1.92 1.92 0 0 1-2 2zm-9.56-41.88v11.18h136.65v-11.18zm64.25-49.2c-26 1.62-47.78 20.53-54.08 45.14h21.77zm-52.64 64.45v22.57h54.69v-22.57zm54.69-60.39L93.46 124h29.28zm4.07-4.26V124h56.12a60.43 60.43 0 0 0-56.12-45.34zm0 64.65v22.57H136v-22.57zm13.22 0v22.57h41.47v-22.57z" class="cls-1"/></svg>